<svg width="41" height="41" viewBox="0 0 41 41" fill="none" xmlns="http://www.w3.org/2000/svg">
<g id="Bitcoin">
<g id="Group">
<path id="Vector" opacity="0.996" fill-rule="evenodd" clip-rule="evenodd" d="M18.2726 0.833252C19.4445 0.833252 20.6163 0.833252 21.7882 0.833252C28.9535 1.69973 34.3051 5.26744 37.8429 11.5364C39.0548 13.934 39.797 16.46 40.0695 19.1145C40.0695 20.2604 40.0695 21.4061 40.0695 22.552C39.2027 29.796 35.583 35.1736 29.2101 38.6848C26.8812 39.839 24.4332 40.5552 21.8663 40.8333C20.6945 40.8333 19.5226 40.8333 18.3507 40.8333C11.1071 39.9667 5.72951 36.3469 2.2179 29.9739C1.06357 27.6447 0.347421 25.1968 0.069458 22.6301C0.069458 21.4583 0.069458 20.2864 0.069458 19.1145C0.936153 11.8705 4.55594 6.49291 10.9288 2.98169C13.258 1.82736 15.7059 1.11121 18.2726 0.833252Z" fill="#F7931A"/>
</g>
<g id="Group_2">
<path id="Vector_2" fill-rule="evenodd" clip-rule="evenodd" d="M19.2101 7.8645C19.9442 7.99595 20.6734 8.1522 21.3976 8.33325C21.1372 9.53114 20.8767 10.7291 20.6163 11.927C21.1902 12.0315 21.7631 12.1357 22.3351 12.2395C22.5913 11.0977 22.8777 9.96489 23.1945 8.84106C23.9298 8.97278 24.6589 9.15513 25.382 9.38794C25.0277 10.5574 24.7542 11.7422 24.5616 12.9426C25.9873 13.3815 27.2113 14.1367 28.2335 15.2083C28.9055 16.2391 29.0877 17.3589 28.7804 18.5676C28.4188 19.9579 27.5464 20.8433 26.1632 21.2239C27.8895 22.0722 28.6317 23.4524 28.3898 25.3645C27.6981 28.7402 25.6277 30.2115 22.1788 29.7786C21.5509 29.7001 20.9259 29.609 20.3038 29.5051C20.0553 30.6554 19.7819 31.8013 19.4835 32.9426C19.443 33.022 19.3778 33.074 19.2882 33.0989C18.6034 32.9408 17.9263 32.7584 17.257 32.552C17.5928 31.3648 17.8793 30.1669 18.1163 28.9583C17.578 28.8527 17.0441 28.7225 16.5148 28.5676C16.4545 28.579 16.4023 28.605 16.3585 28.6458C16.0602 29.7871 15.7867 30.9329 15.5382 32.0833C14.8041 31.9518 14.0748 31.7955 13.3507 31.6145C13.5877 30.4058 13.8742 29.2079 14.2101 28.0208C12.7514 27.5939 11.2931 27.1772 9.83508 26.7708C10.1615 25.9323 10.5391 25.125 10.9679 24.3489C11.6484 24.5618 12.3385 24.679 13.0382 24.7004C13.3245 24.5701 13.4938 24.3488 13.546 24.0364C14.3466 20.7431 15.1409 17.4488 15.9288 14.1536C15.9097 13.7443 15.7274 13.4318 15.382 13.2161C14.7283 12.9485 14.0513 12.7792 13.3507 12.7083C13.495 11.9747 13.6643 11.2455 13.8585 10.5208C13.9241 10.4329 14.0152 10.3808 14.132 10.3645C15.541 10.7038 16.9473 11.0423 18.3507 11.3801C18.6249 10.205 18.9114 9.03317 19.2101 7.8645Z" fill="white"/>
</g>
<g id="Group_3">
<path id="Vector_3" fill-rule="evenodd" clip-rule="evenodd" d="M19.9132 14.5051C21.2714 14.6931 22.5474 15.1228 23.7413 15.7942C24.6852 16.6008 24.8545 17.5513 24.2491 18.6458C23.6706 19.2293 22.9674 19.4898 22.1398 19.427C21.0577 19.4008 20.003 19.2184 18.9757 18.8801C18.9497 18.8411 18.9236 18.802 18.8976 18.7629C19.2795 17.3523 19.6181 15.933 19.9132 14.5051Z" fill="#F7931A"/>
</g>
<g id="Group_4">
<path id="Vector_4" fill-rule="evenodd" clip-rule="evenodd" d="M18.2726 21.0676C19.7673 21.3272 21.1996 21.7829 22.5695 22.4348C23.9497 23.2297 24.2752 24.3365 23.546 25.7551C22.8226 26.4248 21.9632 26.7113 20.9679 26.6145C19.6351 26.5509 18.346 26.2905 17.1007 25.8333C17.5284 24.253 17.919 22.6644 18.2726 21.0676Z" fill="#F7931A"/>
</g>
</g>
</svg>
