<svg width="60" height="61" viewBox="0 0 60 61" fill="none" xmlns="http://www.w3.org/2000/svg">
<g id="Bitcoin">
<g id="Group">
<path id="Vector" opacity="0.996" fill-rule="evenodd" clip-rule="evenodd" d="M27.3047 0.5C29.0625 0.5 30.8203 0.5 32.5781 0.5C43.3261 1.79971 51.3534 7.15128 56.6602 16.5547C58.478 20.1511 59.5913 23.9401 60 27.9219C60 29.6407 60 31.3593 60 33.0781C58.6999 43.9441 53.2703 52.0105 43.7109 57.2773C40.2176 59.0087 36.5456 60.0829 32.6953 60.5C30.9375 60.5 29.1797 60.5 27.4219 60.5C16.5565 59.2002 8.49008 53.7705 3.22266 44.2109C1.49116 40.7172 0.416944 37.0454 0 33.1953C0 31.4375 0 29.6797 0 27.9219C1.30004 17.0559 6.72973 8.98948 16.2891 3.72266C19.7828 1.99116 23.4546 0.916944 27.3047 0.5Z" fill="#F7931A"/>
</g>
<g id="Group_2">
<path id="Vector_2" fill-rule="evenodd" clip-rule="evenodd" d="M28.7109 11.047C29.8121 11.2442 30.906 11.4785 31.9922 11.7501C31.6016 13.547 31.2109 15.3439 30.8203 17.1407C31.6812 17.2974 32.5405 17.4538 33.3984 17.6095C33.7827 15.8968 34.2123 14.1976 34.6875 12.5118C35.7905 12.7094 36.8842 12.9829 37.9687 13.3322C37.4373 15.0863 37.0271 16.8636 36.7383 18.6642C38.8767 19.3224 40.7127 20.4553 42.2461 22.0626C43.254 23.6089 43.5274 25.2886 43.0664 27.1017C42.5239 29.187 41.2154 30.5152 39.1406 31.0861C41.7301 32.3586 42.8434 34.4288 42.4805 37.297C41.4429 42.3605 38.3374 44.5675 33.1641 43.9181C32.2221 43.8004 31.2846 43.6637 30.3516 43.5079C29.9788 45.2334 29.5686 46.9522 29.1211 48.6642C29.0603 48.7832 28.9625 48.8613 28.8281 48.8986C27.801 48.6614 26.7853 48.3879 25.7812 48.0782C26.285 46.2975 26.7148 44.5006 27.0703 42.6876C26.2628 42.5293 25.462 42.3341 24.668 42.1017C24.5775 42.1187 24.4993 42.1577 24.4336 42.2189C23.9861 43.9309 23.5759 45.6497 23.2031 47.3751C22.1019 47.1779 21.0081 46.9435 19.9219 46.672C20.2774 44.859 20.7071 43.0621 21.2109 41.2814C19.0229 40.6411 16.8354 40.016 14.6484 39.4064C15.138 38.1487 15.7045 36.9378 16.3477 35.7736C17.3684 36.093 18.4036 36.2688 19.4531 36.3009C19.8826 36.1054 20.1366 35.7734 20.2148 35.3048C21.4157 30.3649 22.6071 25.4234 23.7891 20.4806C23.7604 19.8666 23.487 19.3979 22.9687 19.0743C21.9882 18.673 20.9727 18.419 19.9219 18.3126C20.1383 17.2122 20.3923 16.1185 20.6836 15.0314C20.7819 14.8997 20.9187 14.8215 21.0937 14.797C23.2073 15.3059 25.3167 15.8137 27.4219 16.3204C27.8332 14.5578 28.2629 12.8 28.7109 11.047Z" fill="white"/>
</g>
<g id="Group_3">
<path id="Vector_3" fill-rule="evenodd" clip-rule="evenodd" d="M29.7656 21.0078C31.8029 21.2898 33.717 21.9343 35.5078 22.9414C36.9237 24.1514 37.1776 25.5771 36.2695 27.2188C35.4016 28.0941 34.347 28.4848 33.1055 28.3906C31.4823 28.3513 29.9003 28.0777 28.3594 27.5703C28.3204 27.5117 28.2812 27.4531 28.2422 27.3945C28.8151 25.2786 29.323 23.1496 29.7656 21.0078Z" fill="#F7931A"/>
</g>
<g id="Group_4">
<path id="Vector_4" fill-rule="evenodd" clip-rule="evenodd" d="M27.3047 30.8516C29.5468 31.2409 31.6952 31.9244 33.75 32.9023C35.8204 34.0946 36.3087 35.7548 35.2148 37.8828C34.1297 38.8873 32.8406 39.3171 31.3477 39.1719C29.3484 39.0765 27.4148 38.6859 25.5469 38C26.1884 35.6296 26.7743 33.2468 27.3047 30.8516Z" fill="#F7931A"/>
</g>
</g>
</svg>
