<svg width="41" height="41" viewBox="0 0 41 41" fill="none" xmlns="http://www.w3.org/2000/svg">
<g id="BNB">
<g id="Group">
<path id="Vector" opacity="0.982" fill-rule="evenodd" clip-rule="evenodd" d="M18.9808 0.360875C27.5746 -0.0154679 34.0588 3.4537 38.4336 10.7684C41.1996 16.2161 41.5605 21.8224 39.5166 27.5869C37.0495 33.5728 32.7313 37.5553 26.562 39.5347C19.2802 41.4379 12.8098 39.9392 7.15078 35.0386C2.02443 29.965 0.0111124 23.8454 1.11082 16.6798C2.61366 9.6839 6.62641 4.72991 13.1491 1.81792C15.0385 1.06832 16.9824 0.582638 18.9808 0.360875Z" fill="#030200"/>
</g>
<g id="Group_2">
<path id="Vector_2" fill-rule="evenodd" clip-rule="evenodd" d="M19.2307 1.69312C19.5362 1.69312 19.8416 1.69312 20.1471 1.69312C20.1471 2.13717 20.1471 2.58122 20.1471 3.02527C19.1481 3.08833 18.1623 3.2271 17.1896 3.44157C17.0791 3.42035 16.9958 3.36484 16.9397 3.27505C16.7949 2.8984 16.6977 2.50986 16.6481 2.10941C17.5183 1.96158 18.3792 1.82282 19.2307 1.69312Z" fill="#F6E339"/>
</g>
<g id="Group_3">
<path id="Vector_3" fill-rule="evenodd" clip-rule="evenodd" d="M21.48 1.77637C22.6546 1.80516 23.8209 1.91617 24.979 2.10941C24.9295 2.50985 24.8322 2.89839 24.6875 3.27505C24.6313 3.36483 24.548 3.42034 24.4375 3.44157C23.4673 3.18869 22.4814 3.07767 21.48 3.10853C21.48 2.66448 21.48 2.22042 21.48 1.77637Z" fill="#F8E439"/>
</g>
<g id="Group_4">
<path id="Vector_4" fill-rule="evenodd" clip-rule="evenodd" d="M15.1485 2.52563C15.2318 2.52563 15.3151 2.52563 15.3984 2.52563C15.5082 2.9647 15.5916 3.40875 15.6484 3.85779C14.6397 4.11885 13.6817 4.5074 12.7742 5.02343C12.5278 4.65578 12.2917 4.28111 12.066 3.89942C13.0592 3.3473 14.0866 2.88937 15.1485 2.52563Z" fill="#F7E439"/>
</g>
<g id="Group_5">
<path id="Vector_5" fill-rule="evenodd" clip-rule="evenodd" d="M26.2287 2.52563C27.3976 2.84555 28.5083 3.30348 29.5611 3.89942C29.3355 4.28111 29.0994 4.65578 28.853 5.02343C27.9613 4.54589 27.031 4.15735 26.0621 3.85779C26.0344 3.78841 26.0065 3.71902 25.9788 3.64964C26.069 3.27527 26.1523 2.9006 26.2287 2.52563Z" fill="#F7E439"/>
</g>
<g id="Group_6">
<path id="Vector_6" fill-rule="evenodd" clip-rule="evenodd" d="M19.314 4.35744C24.6396 4.05392 29.1244 5.83013 32.7685 9.68608C36.9943 14.7964 37.9107 20.4581 35.5177 26.6711C33.2712 31.5523 29.5361 34.6468 24.3126 35.9546C18.2529 37.0904 13.1016 35.4391 8.8586 31.0006C5.20781 26.629 4.04148 21.6611 5.35959 16.0971C7.15075 10.4215 10.8858 6.68872 16.5647 4.89863C17.4832 4.66783 18.3996 4.48744 19.314 4.35744Z" fill="#FCD734"/>
</g>
<g id="Group_7">
<path id="Vector_7" fill-rule="evenodd" clip-rule="evenodd" d="M10.7331 4.6071C10.8432 4.59295 10.9404 4.62071 11.0247 4.69036C11.1885 5.03391 11.3689 5.36695 11.5662 5.68948C10.7013 6.23436 9.89599 6.85881 9.1502 7.56283C9.09463 7.61836 9.03915 7.61836 8.98358 7.56283C8.71974 7.29917 8.45598 7.03552 8.19213 6.77186C8.13657 6.71635 8.13657 6.66085 8.19213 6.60534C9.02223 5.90751 9.86916 5.24143 10.7331 4.6071Z" fill="#F9E639"/>
</g>
<g id="Group_8">
<path id="Vector_8" fill-rule="evenodd" clip-rule="evenodd" d="M30.6441 4.60718C31.6611 5.13766 32.5914 5.80374 33.435 6.60542C33.4906 6.66092 33.4906 6.71643 33.435 6.77194C33.1712 7.03559 32.9074 7.29925 32.6436 7.5629C32.588 7.61844 32.5325 7.61844 32.4769 7.5629C31.7311 6.85888 30.9258 6.23443 30.061 5.68956C30.2776 5.33978 30.472 4.97898 30.6441 4.60718Z" fill="#F9E539"/>
</g>
<g id="Group_9">
<path id="Vector_9" fill-rule="evenodd" clip-rule="evenodd" d="M20.5637 7.43793C20.7945 7.43135 21.0166 7.47298 21.2301 7.56282C23.829 10.1323 26.3977 12.7273 28.9363 15.3476C29.0021 15.6086 28.9744 15.8583 28.853 16.097C27.8648 17.1124 26.8511 18.0977 25.8122 19.0527C25.5034 19.1356 25.2256 19.0802 24.9791 18.8862C23.6033 17.4973 22.2148 16.1235 20.8136 14.7648C19.3544 16.2092 17.8827 17.6385 16.3982 19.0527C16.1371 19.1185 15.8872 19.0907 15.6484 18.9694C14.6323 17.9818 13.6465 16.9688 12.6909 15.9304C12.6251 15.6695 12.6528 15.4197 12.7742 15.1811C15.362 12.581 17.9584 9.99992 20.5637 7.43793Z" fill="#080702"/>
</g>
<g id="Group_10">
<path id="Vector_10" fill-rule="evenodd" clip-rule="evenodd" d="M7.06746 7.68774C7.44943 7.93036 7.78267 8.23559 8.06718 8.6036C7.36463 9.38874 6.72592 10.2213 6.15105 11.1014C5.75405 10.9042 5.39304 10.6683 5.06802 10.3937C5.684 9.4536 6.35048 8.55165 7.06746 7.68774Z" fill="#F9E639"/>
</g>
<g id="Group_11">
<path id="Vector_11" fill-rule="evenodd" clip-rule="evenodd" d="M34.3931 7.68774C35.2415 8.47755 35.9635 9.3795 36.5591 10.3937C36.2341 10.6683 35.8731 10.9042 35.4761 11.1014C34.9013 10.2213 34.2625 9.38874 33.56 8.6036C33.8395 8.29662 34.1172 7.99139 34.3931 7.68774Z" fill="#F9E639"/>
</g>
<g id="Group_12">
<path id="Vector_12" fill-rule="evenodd" clip-rule="evenodd" d="M20.7303 9.10303C22.9865 11.2329 25.2081 13.4116 27.3951 15.6389C26.7703 16.2634 26.1454 16.8878 25.5206 17.5123C24.0904 16.083 22.6603 14.6537 21.2302 13.2244C20.9525 13.0579 20.6747 13.0579 20.3971 13.2244C18.9669 14.6537 17.5368 16.083 16.1066 17.5123C15.4818 16.8878 14.857 16.2634 14.2321 15.6389C16.415 13.4713 18.5811 11.2927 20.7303 9.10303Z" fill="#FEF49C"/>
</g>
<g id="Group_13">
<path id="Vector_13" fill-rule="evenodd" clip-rule="evenodd" d="M4.31823 11.6011C4.71856 11.8151 5.10733 12.051 5.48457 12.3088C4.96823 13.2157 4.57945 14.1732 4.31823 15.1813C3.86892 15.1245 3.4246 15.0412 2.98528 14.9315C3.29091 13.7656 3.73523 12.6554 4.31823 11.6011Z" fill="#F7E439"/>
</g>
<g id="Group_14">
<path id="Vector_14" fill-rule="evenodd" clip-rule="evenodd" d="M37.2256 11.6011C37.8772 12.6268 38.3492 13.7369 38.6419 14.9315C38.2041 15.0356 37.7597 15.1189 37.3089 15.1813C37.0477 14.1732 36.6589 13.2157 36.1426 12.3088C36.509 12.0709 36.87 11.835 37.2256 11.6011Z" fill="#F8E539"/>
</g>
<g id="Group_15">
<path id="Vector_15" fill-rule="evenodd" clip-rule="evenodd" d="M2.56874 16.1802C2.96943 16.2297 3.3582 16.3269 3.73508 16.4716C3.81969 16.5148 3.87522 16.5842 3.9017 16.6797C3.68999 17.6679 3.55115 18.667 3.48515 19.6771C3.04083 19.6771 2.59651 19.6771 2.15219 19.6771C2.19749 18.5 2.33633 17.3343 2.56874 16.1802Z" fill="#F6E339"/>
</g>
<g id="Group_16">
<path id="Vector_16" fill-rule="evenodd" clip-rule="evenodd" d="M38.7252 16.1802C38.8362 16.1802 38.9474 16.1802 39.0584 16.1802C39.2908 17.3343 39.4296 18.5 39.475 19.6771C39.0307 19.6771 38.5863 19.6771 38.142 19.6771C38.0629 18.6688 37.9241 17.6697 37.7255 16.6797C37.7532 16.6242 37.781 16.5687 37.8088 16.5132C38.1306 16.4206 38.4361 16.3096 38.7252 16.1802Z" fill="#F6E238"/>
</g>
<g id="Group_17">
<path id="Vector_17" fill-rule="evenodd" clip-rule="evenodd" d="M11.1496 16.8464C11.4241 16.8263 11.674 16.8957 11.8994 17.0545C12.8297 17.9843 13.76 18.914 14.6903 19.8438C14.9591 20.1706 14.9591 20.5037 14.6903 20.8429C13.76 21.7726 12.8297 22.7023 11.8994 23.6321C11.6079 23.8572 11.3024 23.8849 10.983 23.7153C9.99722 22.7301 9.01133 21.7448 8.02552 20.7596C7.86898 20.4794 7.86898 20.2018 8.02552 19.927C9.05815 18.881 10.0995 17.8542 11.1496 16.8464Z" fill="#080702"/>
</g>
<g id="Group_18">
<path id="Vector_18" fill-rule="evenodd" clip-rule="evenodd" d="M20.5636 16.8464C20.838 16.8263 21.088 16.8957 21.3134 17.0545C22.2437 17.9843 23.174 18.914 24.1043 19.8438C24.373 20.1706 24.373 20.5037 24.1043 20.8429C23.174 21.7726 22.2437 22.7023 21.3134 23.6321C20.974 23.9007 20.6408 23.9007 20.3137 23.6321C19.3834 22.7023 18.4531 21.7726 17.5228 20.8429C17.2541 20.5037 17.2541 20.1706 17.5228 19.8438C18.5277 18.8256 19.5412 17.8264 20.5636 16.8464Z" fill="#080602"/>
</g>
<g id="Group_19">
<path id="Vector_19" fill-rule="evenodd" clip-rule="evenodd" d="M29.9776 16.8464C30.2085 16.8398 30.4306 16.8814 30.6441 16.9713C31.6299 17.9565 32.6158 18.9418 33.6016 19.927C33.7581 20.2018 33.7581 20.4793 33.6016 20.7596C32.6158 21.7448 31.6299 22.7301 30.6441 23.7153C30.3151 23.9046 30.0096 23.8768 29.7277 23.6321C28.7974 22.7023 27.8671 21.7726 26.9368 20.8429C26.6681 20.5037 26.6681 20.1706 26.9368 19.8437C27.9417 18.8255 28.9553 17.8264 29.9776 16.8464Z" fill="#090702"/>
</g>
<g id="Group_20">
<path id="Vector_20" fill-rule="evenodd" clip-rule="evenodd" d="M11.3162 18.5115C12.0042 19.0601 12.6429 19.6706 13.2324 20.3432C12.6492 20.9815 12.0383 21.5921 11.3995 22.1749C10.7608 21.5921 10.1499 20.9815 9.56673 20.3432C10.1516 19.7309 10.7348 19.1204 11.3162 18.5115Z" fill="#FDF39B"/>
</g>
<g id="Group_21">
<path id="Vector_21" fill-rule="evenodd" clip-rule="evenodd" d="M20.7302 18.5115C21.4182 19.0601 22.0569 19.6706 22.6464 20.3432C22.0632 20.9815 21.4523 21.5921 20.8136 22.1749C20.1748 21.5921 19.5639 20.9815 18.9807 20.3432C19.5657 19.7309 20.1488 19.1204 20.7302 18.5115Z" fill="#FDF39C"/>
</g>
<g id="Group_22">
<path id="Vector_22" fill-rule="evenodd" clip-rule="evenodd" d="M30.1443 18.5115C30.8323 19.0601 31.471 19.6706 32.0604 20.3432C31.4772 20.9815 30.8663 21.5921 30.2276 22.1749C29.5889 21.5921 28.9779 20.9815 28.3948 20.3432C28.9797 19.7309 29.5629 19.1204 30.1443 18.5115Z" fill="#FDF39B"/>
</g>
<g id="Group_23">
<path id="Vector_23" fill-rule="evenodd" clip-rule="evenodd" d="M2.2355 21.0093C2.67981 21.0093 3.12414 21.0093 3.56845 21.0093C3.53758 22.0101 3.64866 22.9954 3.90169 23.965C3.88046 24.0754 3.82491 24.1587 3.73507 24.2148C3.3582 24.3595 2.96942 24.4567 2.56874 24.5062C2.37546 23.3492 2.26438 22.1836 2.2355 21.0093Z" fill="#F8E539"/>
</g>
<g id="Group_24">
<path id="Vector_24" fill-rule="evenodd" clip-rule="evenodd" d="M38.0587 21.0093C38.503 21.0093 38.9473 21.0093 39.3916 21.0093C39.3719 22.1855 39.2608 23.3511 39.0584 24.5062C38.6244 24.4602 38.2079 24.3492 37.8087 24.1732C37.8026 23.5903 37.8721 23.0074 38.017 22.4247C38.0586 21.9537 38.0725 21.4819 38.0587 21.0093Z" fill="#F8E439"/>
</g>
<g id="Group_25">
<path id="Vector_25" fill-rule="evenodd" clip-rule="evenodd" d="M15.815 21.5922C16.1248 21.5507 16.4026 21.6202 16.6481 21.8003C18.0239 23.1892 19.4124 24.563 20.8136 25.9217C22.2148 24.563 23.6033 23.1892 24.9791 21.8003C25.2922 21.5615 25.6254 21.5337 25.9788 21.7171C26.9369 22.6746 27.8949 23.6321 28.853 24.5896C28.9744 24.8282 29.0021 25.078 28.9363 25.3389C26.3977 27.9592 23.829 30.5542 21.2301 33.1237C21.0194 33.2421 20.7972 33.2698 20.5637 33.207C17.8838 30.6398 15.2596 28.0171 12.6909 25.3389C12.6251 25.078 12.6528 24.8282 12.7742 24.5896C13.7791 23.5714 14.7926 22.5722 15.815 21.5922Z" fill="#080702"/>
</g>
<g id="Group_26">
<path id="Vector_26" fill-rule="evenodd" clip-rule="evenodd" d="M16.0649 23.1741C17.52 24.5866 18.964 26.0159 20.3971 27.462C20.6747 27.6285 20.9525 27.6285 21.2302 27.462C22.6603 26.0326 24.0904 24.6034 25.5206 23.1741C26.1454 23.7985 26.7703 24.423 27.3951 25.0474C25.214 27.2411 23.0201 29.4197 20.8136 31.5833C18.6071 29.4197 16.4132 27.2411 14.2321 25.0474C14.86 24.434 15.4709 23.8095 16.0649 23.1741Z" fill="#FEF49C"/>
</g>
<g id="Group_27">
<path id="Vector_27" fill-rule="evenodd" clip-rule="evenodd" d="M3.90168 25.5053C4.05064 25.4815 4.18949 25.5093 4.31823 25.5885C4.61796 26.5568 5.00674 27.4866 5.48457 28.3777C5.1167 28.624 4.7418 28.86 4.35989 29.0855C3.78058 28.0569 3.32238 26.9745 2.98528 25.8383C3.30707 25.7457 3.61254 25.6347 3.90168 25.5053Z" fill="#F8E439"/>
</g>
<g id="Group_28">
<path id="Vector_28" fill-rule="evenodd" clip-rule="evenodd" d="M37.3089 25.5054C37.7597 25.5677 38.2041 25.651 38.6419 25.7552C38.3221 26.9223 37.8638 28.0324 37.2673 29.0855C36.8854 28.8601 36.5105 28.6241 36.1426 28.3778C36.6374 27.4631 37.0262 26.5057 37.3089 25.5054Z" fill="#F8E439"/>
</g>
<g id="Group_29">
<path id="Vector_29" fill-rule="evenodd" clip-rule="evenodd" d="M6.06774 29.585C6.69358 30.4344 7.36006 31.267 8.06718 32.0828C7.78948 32.4158 7.48401 32.7211 7.15077 32.9986C6.36625 32.1659 5.672 31.264 5.06802 30.2927C5.08009 30.2284 5.10785 30.1729 5.15133 30.1262C5.48956 29.9855 5.79503 29.8051 6.06774 29.585Z" fill="#F9E639"/>
</g>
<g id="Group_30">
<path id="Vector_30" fill-rule="evenodd" clip-rule="evenodd" d="M35.3928 29.585C35.7612 29.7437 36.1222 29.924 36.4758 30.1262C36.5193 30.1729 36.547 30.2284 36.5591 30.2927C35.9551 31.264 35.2609 32.1659 34.4764 32.9986C34.1431 32.7211 33.8376 32.4158 33.56 32.0828C34.2716 31.3173 34.8825 30.4847 35.3928 29.585Z" fill="#F9E639"/>
</g>
<g id="Group_31">
<path id="Vector_31" fill-rule="evenodd" clip-rule="evenodd" d="M8.98358 33.082C9.81792 33.7484 10.6788 34.3867 11.5662 34.997C11.3612 35.3372 11.1669 35.6842 10.983 36.0378C10.8997 36.0933 10.8164 36.0933 10.7331 36.0378C9.8485 35.436 9.00157 34.7838 8.19213 34.0812C8.13657 34.0256 8.13657 33.9702 8.19213 33.9146C8.47297 33.6479 8.73681 33.3704 8.98358 33.082Z" fill="#F9E639"/>
</g>
<g id="Group_32">
<path id="Vector_32" fill-rule="evenodd" clip-rule="evenodd" d="M32.4769 33.082C32.8299 33.3092 33.1493 33.5867 33.435 33.9146C33.4906 33.9702 33.4906 34.0256 33.435 34.0812C32.6256 34.7838 31.7786 35.436 30.894 36.0378C30.8107 36.0933 30.7274 36.0933 30.6441 36.0378C30.4603 35.6842 30.2659 35.3372 30.061 34.997C30.9418 34.4492 31.7471 33.8109 32.4769 33.082Z" fill="#F9E639"/>
</g>
<g id="Group_33">
<path id="Vector_33" fill-rule="evenodd" clip-rule="evenodd" d="M12.7325 35.6631C13.658 36.1672 14.63 36.5557 15.6484 36.8287C15.586 37.2792 15.5027 37.7234 15.3984 38.1609C14.2212 37.8641 13.1104 37.4061 12.066 36.7871C12.2996 36.417 12.5218 36.0423 12.7325 35.6631Z" fill="#F8E439"/>
</g>
<g id="Group_34">
<path id="Vector_34" fill-rule="evenodd" clip-rule="evenodd" d="M28.8113 35.6631C29.0903 36.0108 29.3403 36.3854 29.5611 36.7871C28.5073 37.3833 27.3966 37.8412 26.2287 38.1609C26.1478 37.7752 26.0645 37.3867 25.9788 36.9952C26.0065 36.9397 26.0344 36.8843 26.0621 36.8287C27.0277 36.5355 27.9442 36.1469 28.8113 35.6631Z" fill="#F8E439"/>
</g>
<g id="Group_35">
<path id="Vector_35" fill-rule="evenodd" clip-rule="evenodd" d="M16.9813 37.2451C18.0226 37.4718 19.0779 37.5827 20.1471 37.5782C20.1471 38.05 20.1471 38.5217 20.1471 38.9936C18.9693 38.9483 17.8029 38.8096 16.6481 38.5773C16.7072 38.1188 16.8183 37.6747 16.9813 37.2451Z" fill="#F4E138"/>
</g>
<g id="Group_36">
<path id="Vector_36" fill-rule="evenodd" clip-rule="evenodd" d="M24.2292 37.245C24.3782 37.2213 24.5171 37.249 24.6458 37.3283C24.8219 37.7272 24.933 38.1435 24.979 38.5772C23.8178 38.7524 22.6514 38.8912 21.48 38.9935C21.48 38.5216 21.48 38.0499 21.48 37.5781C22.4285 37.6357 23.3449 37.5246 24.2292 37.245Z" fill="#F7E439"/>
</g>
</g>
</svg>
