<svg width="50" height="50" viewBox="0 0 50 50" fill="none" xmlns="http://www.w3.org/2000/svg">
<g id="Call Icon">
<path id="Vector" d="M9.42014 0.323658C7.57814 1.38393 1.96283 7.8683 0.35526 10.7924C-0.0243039 11.4732 -0.0354676 11.5402 0.0315143 12.2545C0.277115 14.6429 1.33766 18.0692 2.8001 21.2054C4.41883 24.654 7.15392 28.7835 10.2574 32.4777C11.8427 34.3638 15.5601 38.0804 17.4021 39.6429C24.078 45.2679 30.8097 48.7946 36.8715 49.8326C37.4186 49.9219 38.0102 50 38.2 50C38.8363 50 40.6002 48.8616 43.2683 46.7411C46.7067 43.9955 49.4195 41.317 49.8772 40.2009C50.2568 39.2969 49.52 38.4598 46.8518 36.6853C42.9781 34.1295 39.3722 32.0982 37.6642 31.529C36.8715 31.2612 36.8046 31.25 36.4138 31.4174C35.8668 31.6406 35.5207 31.9866 33.9802 33.7612C33.288 34.5536 32.4954 35.4241 32.2275 35.692L31.7251 36.1719L31.0106 35.9933C28.6886 35.3906 25.5404 33.75 22.9282 31.7746C21.7783 30.8929 19.8358 29.0179 18.7641 27.7344C16.7323 25.3125 14.8122 21.8304 14.0419 19.1629L13.7963 18.2924L14.3991 17.6786C14.734 17.3326 15.5601 16.5848 16.23 16.0156C17.7929 14.6987 18.3511 14.1071 18.5632 13.5938C18.7306 13.2143 18.7195 13.125 18.5073 12.4554C17.8822 10.4241 13.3163 2.73438 11.664 0.926338C10.7486 -0.078125 10.3244 -0.200893 9.42014 0.323658Z" fill="white"/>
<path id="Vector_2" d="M26.7796 1.78579V3.5715H27.3155C29.6375 3.5715 32.7187 4.33043 35.1188 5.46882C39.2159 7.42195 42.3082 10.4465 44.3065 14.4532C45.5569 16.9644 46.0927 18.8505 46.3383 21.6742L46.4723 23.2144H48.2361H50V22.7233C50 21.8639 49.7879 19.9666 49.5423 18.6943C48.8836 15.2456 47.0416 11.3059 44.8535 8.66078C40.8458 3.81704 35.4872 0.881767 29.3696 0.167482C28.5881 0.0781956 27.6839 7.05719e-05 27.3713 7.05719e-05H26.7796V1.78579Z" fill="white"/>
<path id="Vector_3" d="M26.7796 10.6809V12.4666L27.6615 12.5447C30.2627 12.7568 32.5289 13.8394 34.4267 15.7813C36.2352 17.6228 37.2399 19.8103 37.452 22.3438L37.5302 23.2144H39.294H41.0691V22.7568C41.0691 21.2166 40.3881 18.4822 39.6066 16.942C38.2447 14.23 35.8333 11.7858 33.1987 10.4688C31.5353 9.63177 29.6821 9.11837 27.7955 8.97328L26.7796 8.89516V10.6809Z" fill="white"/>
</g>
</svg>
