<svg width="50" height="50" viewBox="0 0 50 50" fill="none" xmlns="http://www.w3.org/2000/svg">
<g id="Email Icon">
<path id="Vector" d="M17.7734 1.46484V2.92969H28.0273H38.2813V1.46484V0H28.0273H17.7734V1.46484Z" fill="white"/>
<path id="Vector_2" d="M41.2109 1.46484V2.92969H42.6758H44.1406V1.46484V0H42.6758H41.2109V1.46484Z" fill="white"/>
<path id="Vector_3" d="M23.6328 7.32422V8.78906H33.8867H44.1406V7.32422V5.85938H33.8867H23.6328V7.32422Z" fill="white"/>
<path id="Vector_4" d="M47.0703 7.32422V8.78906H48.5352H50V7.32422V5.85938H48.5352H47.0703V7.32422Z" fill="white"/>
<path id="Vector_5" d="M3.02734 25V38.2812H25H46.9727V25V11.7188H25H3.02734V25ZM41.1621 14.7363C41.1035 14.7852 37.4512 17.6562 33.0371 21.123L25 27.4316L16.9727 21.123C12.5488 17.6562 8.89649 14.7754 8.84766 14.7363C8.78906 14.6875 15.8594 14.6484 25 14.6484C34.4238 14.6484 41.2109 14.6875 41.1621 14.7363ZM15.6543 23.8184L25 31.1621L34.1113 24.0137C39.1113 20.0781 43.3984 16.709 43.6328 16.5234L44.043 16.1914V25.7715V35.3516H25H5.95703V25.7617C5.95703 16.6504 5.9668 16.1914 6.13281 16.3281C6.2207 16.4062 10.5078 19.7852 15.6543 23.8184Z" fill="white"/>
<path id="Vector_6" d="M0 42.6758V44.1406H1.46484H2.92969V42.6758V41.2109H1.46484H0V42.6758Z" fill="white"/>
<path id="Vector_7" d="M5.85938 42.6758V44.1406H16.1133H26.3672V42.6758V41.2109H16.1133H5.85938V42.6758Z" fill="white"/>
<path id="Vector_8" d="M5.85938 48.5352V50H7.32422H8.78906V48.5352V47.0703H7.32422H5.85938V48.5352Z" fill="white"/>
<path id="Vector_9" d="M11.7188 48.5352V50H21.9727H32.2266V48.5352V47.0703H21.9727H11.7188V48.5352Z" fill="white"/>
</g>
</svg>
