<svg width="41" height="41" viewBox="0 0 41 41" fill="none" xmlns="http://www.w3.org/2000/svg">
<g id="Ethereum">
<circle id="Ellipse 1" cx="20.4444" cy="20.3333" r="20" fill="#2F66F6"/>
<g id="Group 15">
<g id="Group">
<path id="Vector" opacity="0.988" fill-rule="evenodd" clip-rule="evenodd" d="M20.125 8.33325C20.2725 8.36237 20.3766 8.43547 20.4375 8.55255C23.676 12.763 26.9283 16.9662 30.1944 21.1622C26.8864 22.7424 23.5531 24.2958 20.1944 25.8223C16.8357 24.2958 13.5024 22.7424 10.1944 21.1622C13.5065 16.885 16.8166 12.6086 20.125 8.33325Z" fill="white"/>
</g>
<g id="Group_2">
<path id="Vector_2" opacity="0.967" fill-rule="evenodd" clip-rule="evenodd" d="M10.2639 22.5329C10.2681 22.5031 10.2912 22.4848 10.3333 22.478C13.6203 24.0497 16.9074 25.6213 20.1944 27.1929C23.3946 25.6144 26.6006 24.0428 29.8125 22.478C29.8241 22.4963 29.8356 22.5146 29.8472 22.5329C26.6544 26.1495 23.4368 29.7496 20.1944 33.3333C16.8666 29.7413 13.5565 26.1411 10.2639 22.5329Z" fill="white"/>
</g>
</g>
</g>
</svg>
