<svg width="50" height="50" viewBox="0 0 50 50" fill="none" xmlns="http://www.w3.org/2000/svg">
<path id="Facebook" d="M23.1621 0.0614471C14.9807 0.701683 7.70936 5.2523 3.47183 12.3737C0.261876 17.7714 -0.785272 24.4496 0.594615 30.6944C2.49318 39.2834 8.77608 46.2571 17.1239 49.0643C18.357 49.478 20.4513 50 20.8819 50H21.0874V41.2337V32.4673H17.9068H14.7262V28.8229V25.1785H17.9068H21.0874V21.6916C21.0874 19.0223 21.1266 18.0078 21.2342 17.338C21.9486 13.1716 24.6301 10.5121 28.7013 9.91126C29.768 9.75367 32.9192 9.83246 34.7689 10.059L36.1585 10.2363V13.3587V16.4811L34.0838 16.5402C31.7351 16.5993 31.2457 16.6978 30.4139 17.2691C30.1301 17.4562 29.768 17.8207 29.6016 18.0669C29.0438 18.914 28.9949 19.239 28.9459 22.3417L28.897 25.1785H32.381C35.4441 25.1785 35.8649 25.1982 35.8649 25.3262C35.8649 25.4937 34.9254 31.7483 34.8276 32.2014L34.7689 32.4673H31.8427H28.9166V41.2337V50H29.1221C29.5527 50 31.647 49.478 32.8801 49.0643C37.9592 47.3602 42.1674 44.2379 45.3382 39.8251C49.4485 34.1024 50.9458 26.6855 49.4094 19.6626C47.5402 11.1425 41.1594 4.05062 32.8899 1.29268C29.8365 0.278145 26.2644 -0.17495 23.1621 0.0614471Z" fill="white"/>
</svg>
