<svg width="25" height="25" viewBox="0 0 25 25" fill="none" xmlns="http://www.w3.org/2000/svg">
<g id="Like">
<path id="Vector" d="M12.9697 0.0549431C12.8671 0.0959702 12.6962 0.219046 12.5888 0.326736C12.2812 0.644682 12.2568 0.798529 12.2568 2.58313V4.14209L12.1249 4.33183C11.6805 4.95747 9.80541 7.20361 8.09631 9.14205L7.32477 10.0241V16.7574V23.4958L8.48696 23.9471C9.73216 24.4291 10.2156 24.5932 10.7918 24.7265C11.8319 24.9727 11.8466 24.9727 16.5539 24.9932C19.7182 25.0086 21.1099 24.9983 21.3394 24.9573C22.5016 24.7471 23.3903 23.6394 23.3903 22.3984C23.3903 21.9214 23.3024 21.5676 23.0876 21.1573L22.9264 20.8445L23.2194 20.5266C23.5417 20.183 23.737 19.8035 23.8591 19.3061C24.0056 18.701 23.8787 17.8651 23.5661 17.3676L23.4489 17.1779L23.7517 16.8497C24.5232 16.0138 24.6795 14.8241 24.1472 13.7984L23.9861 13.4856L24.24 13.2189C25.2411 12.1779 25.2557 10.619 24.2693 9.56769C24.074 9.35744 23.8298 9.16256 23.6394 9.06513C23.0729 8.76257 22.9753 8.75231 19.7915 8.75231C18.1996 8.75231 16.8957 8.73693 16.8957 8.72154C16.8957 8.70616 17.0764 8.04462 17.2913 7.25489L17.6917 5.80874L17.6624 4.86003C17.6282 3.72671 17.5354 3.2703 17.2132 2.56262C16.5344 1.09596 15.1427 0.111353 13.585 0.00879097C13.2773 -0.0117226 13.1064 0.00366211 12.9697 0.0549431Z" fill="#098C26"/>
<path id="Vector_2" d="M0 16.3675V24.4957H2.92989H5.85978V16.3675V8.23938H2.92989H0V16.3675Z" fill="#098C26"/>
</g>
</svg>
