<svg width="50" height="50" viewBox="0 0 50 50" fill="none" xmlns="http://www.w3.org/2000/svg">
<path id="LinkedIn" d="M5.77407 0.0703468C4.29666 0.285557 3.13234 0.892052 1.99737 2.017C1.32226 2.68219 1.07766 3.01479 0.75478 3.67997C-0.0670915 5.35273 0.00139774 3.39629 0.00139774 25.0051C0.00139774 46.614 -0.0670915 44.6575 0.75478 46.3303C1.33205 47.5041 2.49637 48.6682 3.67047 49.2454C5.34356 50.0671 3.38673 49.9986 25 49.9986C46.6133 49.9986 44.6564 50.0671 46.3295 49.2454C46.9949 48.9226 47.3275 48.6682 48.0026 48.003C48.668 47.3281 48.9223 46.9955 49.2452 46.3303C50.0671 44.6575 49.9986 46.614 49.9986 25.0051C49.9986 3.39629 50.0671 5.35273 49.2452 3.67997C48.668 2.50611 47.5036 1.34203 46.3295 0.764881C44.6467 -0.0568199 46.672 0.0116539 25.3424 0.00187302C14.8538 -0.00790787 6.09695 0.0214386 5.77407 0.0703468ZM15.0495 9.54928C17.0063 10.1558 18.3272 12.3079 17.9652 14.2936C17.476 16.9837 14.7755 18.5489 12.2218 17.6391C11.3315 17.3163 10.3629 16.4555 9.92257 15.6045C8.83652 13.4719 9.68774 10.8601 11.8109 9.78405C12.7404 9.31451 13.983 9.22647 15.0495 9.54928ZM34.2656 19.4391C37.8858 19.938 39.8818 22.315 40.4199 26.7659C40.5177 27.6072 40.5471 29.4365 40.5569 33.9852V40.0893L40.2731 40.3729L39.9894 40.6566H37.1911H34.3928L34.0797 40.3729L33.7569 40.0893L33.7079 34.083C33.659 28.3017 33.6492 28.067 33.4535 27.48C32.8861 25.8171 31.9468 25.103 30.3324 25.103C28.6984 25.103 27.583 25.9931 26.9764 27.7833L26.7122 28.5756L26.6633 34.3275L26.6144 40.0893L26.2915 40.3729L25.9784 40.6566H23.278H20.5775L20.2938 40.3729L20.0101 40.0893V30.1995V20.3097L20.2938 19.9967L20.5775 19.6738L23.2095 19.6445C25.6947 19.6249 25.8512 19.6347 26.1545 19.8206C26.5753 20.0749 26.6633 20.3488 26.6633 21.3564V22.1879L27.0547 21.689C28.5125 19.8499 31.1836 19.0087 34.2656 19.4391ZM16.4388 19.7814C17.1042 20.0945 17.0748 19.5369 17.0748 30.1897C17.0748 38.5143 17.0552 39.8251 16.928 40.0697C16.6247 40.6468 16.5856 40.6566 13.7775 40.6566C11.9968 40.6566 11.1358 40.6175 10.9597 40.5392C10.402 40.2849 10.4216 40.7251 10.4216 30.1408C10.4216 23.44 10.4509 20.3292 10.5292 20.2021C10.5781 20.0945 10.7738 19.9184 10.9401 19.8206C11.2239 19.6445 11.4489 19.6249 13.6797 19.6249C15.6952 19.6249 16.1747 19.6543 16.4388 19.7814Z" fill="white"/>
</svg>
