<svg width="49" height="50" viewBox="0 0 49 50" fill="none" xmlns="http://www.w3.org/2000/svg">
<path id="Location Icon" d="M22.8845 0.0365524C15.6006 0.3741 8.99641 3.03094 4.63792 7.36463C3.48551 8.50794 1.75688 10.9688 1.1659 12.3081C-0.459295 16.0102 -0.385423 20.3657 1.38752 23.9481C2.20012 25.5814 3.10137 26.7574 7.41553 31.7553C9.70558 34.423 14.0641 39.4862 17.0928 43.025C20.1364 46.553 22.781 49.5256 22.9879 49.6453C23.18 49.7542 23.638 49.8958 23.9778 49.9502C24.5097 50.0373 24.7165 50.0156 25.2336 49.8413C25.9576 49.5691 25.4996 50.07 31.8526 42.6766C34.645 39.4318 38.7819 34.619 41.0571 31.9839C45.5486 26.7574 46.6419 25.3309 47.3954 23.5888C50.2765 17.0338 48.0307 10.0759 41.4856 5.25222C36.5066 1.58274 29.8433 -0.290108 22.8845 0.0365524ZM27.0952 10.0215C27.5384 10.1195 28.5431 10.4135 29.3114 10.6966C30.4933 11.1321 30.9366 11.3717 32.0595 12.2101C33.2562 13.0812 33.5074 13.3316 34.1574 14.3334C35.103 15.7925 35.2951 16.3805 35.2951 17.9266C35.2951 19.4728 35.103 20.0608 34.1574 21.5199C33.5074 22.5217 33.2562 22.7721 32.0595 23.6541C30.8627 24.5361 30.5229 24.7212 29.1636 25.2003C27.1543 25.908 26.386 26.0387 24.1403 26.0387C22.6185 26.0387 22.1014 25.9952 21.1854 25.7883C17.5065 24.9389 14.788 22.9463 13.6504 20.2677C13.2071 19.2333 13.089 17.3931 13.3992 16.326C13.8868 14.6492 14.8176 13.3861 16.4723 12.1665C18.068 10.9906 19.7966 10.2828 21.9832 9.91258C23.0913 9.72747 25.928 9.78192 27.0952 10.0215Z" fill="white"/>
</svg>
