<svg width="50" height="50" viewBox="0 0 50 50" fill="none" xmlns="http://www.w3.org/2000/svg">
<path id="Pinterest" d="M22.9448 0.0566368C18.6974 0.438217 14.6555 1.85693 11.2008 4.14642C5.19182 8.13837 1.33588 14.2241 0.2202 21.4351C-0.0733999 23.3821 -0.0733999 26.6305 0.2202 28.5775C1.05207 33.9393 3.31278 38.5476 6.99256 42.3634C10.8876 46.3945 15.7712 48.9091 21.4279 49.7799C23.3754 50.0734 26.6246 50.0734 28.5721 49.7799C34.2288 48.9091 39.1124 46.3945 43.0074 42.3634C46.6872 38.5476 48.9479 33.9393 49.7798 28.5775C50.0734 26.6305 50.0734 23.3821 49.7798 21.4351C48.9479 16.0831 46.6872 11.4552 43.0074 7.64916C39.1417 3.63765 34.1114 1.06441 28.5819 0.242535C27.1041 0.0272827 24.2954 -0.0705605 22.9448 0.0566368ZM27.936 11.1519C31.9387 11.8661 34.8747 13.9795 36.284 17.1496C37.6052 20.1142 37.3018 24.8791 35.5892 28.2449C33.8569 31.64 31.0482 33.5185 27.6718 33.5185C26.2038 33.5185 25.4306 33.2544 23.8745 32.2172C23.3363 31.8552 22.8959 31.5813 22.8763 31.5911C22.8665 31.6106 22.7393 32.1683 22.6023 32.8337C21.6628 37.2659 20.5862 39.7021 18.8246 41.3948L18.1102 42.0797L18.0319 41.7373C17.9928 41.5514 17.9243 40.6414 17.8949 39.7315C17.7872 37.0506 18.12 34.7416 19.1867 30.6322C19.4803 29.507 19.8816 27.922 20.0773 27.1295L20.4296 25.6716L20.1458 24.8791C19.8914 24.1551 19.862 23.9594 19.862 22.8049C19.862 21.7384 19.9012 21.4253 20.0871 20.8578C20.4394 19.8109 20.7624 19.2434 21.3692 18.6368C22.201 17.8149 23.0916 17.5899 24.2073 17.9226C25.3719 18.265 25.9689 19.2532 25.8417 20.6328C25.7634 21.4938 25.6753 21.846 25.0881 23.7833C24.3932 26.0923 24.2171 26.8947 24.2171 27.8535C24.2171 28.8613 24.4519 29.3994 25.0587 29.8201C25.5187 30.143 26.4093 30.3876 27.1139 30.3876C30.3533 30.3876 32.9174 26.0532 32.7021 20.9459C32.6042 18.6074 31.9975 17.0322 30.735 15.8385C28.2883 13.5099 24.6966 13.1479 21.3006 14.8797C18.4625 16.3375 16.6324 18.9792 16.4171 21.9732C16.329 23.2941 16.5052 24.067 17.2 25.3977C17.7481 26.4348 17.797 26.5718 17.8068 27.1588C17.8068 27.8535 17.4545 28.92 17.2098 28.92C17.1413 28.92 16.7988 28.8124 16.4465 28.6852C14.7044 28.059 13.6964 26.8947 13.2071 24.9672C12.5807 22.5113 12.8743 19.7815 13.9998 17.5116C15.7223 14.0382 19.3923 11.5237 23.4831 11.0247C24.5205 10.8975 26.8888 10.966 27.936 11.1519Z" fill="white"/>
</svg>
