<svg width="41" height="41" viewBox="0 0 41 41" fill="none" xmlns="http://www.w3.org/2000/svg">
<g id="Polygon">
<g id="Group">
<path id="Vector" opacity="0.898" fill-rule="evenodd" clip-rule="evenodd" d="M18.5077 0.338243C18.9369 0.324908 19.3653 0.338295 19.7928 0.378403C20.2396 0.79307 20.2128 1.1679 19.7125 1.5029C19.2438 1.54084 18.7752 1.58101 18.3069 1.62338C17.6281 1.63292 17.4005 1.31164 17.6242 0.659528C17.7045 0.592594 17.7848 0.525659 17.8651 0.458725C18.0952 0.444034 18.3094 0.403873 18.5077 0.338243Z" fill="#CF169B"/>
</g>
<g id="Group_2">
<path id="Vector_2" opacity="0.898" fill-rule="evenodd" clip-rule="evenodd" d="M21.9615 0.418457C22.6184 0.426229 23.2609 0.519937 23.8892 0.699581C24.1612 0.970513 24.2013 1.27841 24.0097 1.62328C23.8292 1.74216 23.6284 1.7957 23.4073 1.78392C22.8599 1.74595 22.3245 1.65224 21.8009 1.50279C21.4545 1.07956 21.5081 0.718112 21.9615 0.418457Z" fill="#CF169B"/>
</g>
<g id="Group_3">
<path id="Vector_3" opacity="0.89" fill-rule="evenodd" clip-rule="evenodd" d="M15.1342 0.900471C15.902 0.823845 16.1831 1.14513 15.9776 1.86433C15.9051 1.96082 15.8114 2.02776 15.6965 2.06513C15.1901 2.22052 14.6815 2.36778 14.1704 2.5069C13.635 2.37286 13.461 2.05157 13.6483 1.54304C13.7458 1.41864 13.8663 1.32493 14.0097 1.26192C14.4017 1.16455 14.7766 1.04407 15.1342 0.900471Z" fill="#CF169B"/>
</g>
<g id="Group_4">
<path id="Vector_4" opacity="0.891" fill-rule="evenodd" clip-rule="evenodd" d="M25.9776 1.22168C26.6148 1.34926 27.2305 1.55007 27.825 1.82409C28.158 2.1956 28.1312 2.54365 27.7447 2.86827C27.6509 2.88165 27.5573 2.89504 27.4635 2.90843C26.9047 2.76976 26.3558 2.59573 25.8169 2.38634C25.4598 1.93631 25.5134 1.54809 25.9776 1.22168Z" fill="#CF169B"/>
</g>
<g id="Group_5">
<path id="Vector_5" opacity="0.885" fill-rule="evenodd" clip-rule="evenodd" d="M11.4394 2.26611C12.1712 2.28794 12.3987 2.636 12.1222 3.31029C11.687 3.57479 11.2452 3.82914 10.7969 4.07334C10.0331 4.19341 9.75196 3.88551 9.95349 3.14965C10.434 2.82269 10.9293 2.52819 11.4394 2.26611Z" fill="#CF169B"/>
</g>
<g id="Group_6">
<path id="Vector_6" opacity="0.894" fill-rule="evenodd" clip-rule="evenodd" d="M29.592 2.90894C30.3417 3.02264 30.9976 3.34392 31.5599 3.87279C31.7379 4.55092 31.4835 4.85881 30.7968 4.79648C30.3077 4.51854 29.8392 4.21064 29.3912 3.87279C29.1918 3.48828 29.2587 3.167 29.592 2.90894Z" fill="#CF169B"/>
</g>
<g id="Group_7">
<path id="Vector_7" opacity="0.984" fill-rule="evenodd" clip-rule="evenodd" d="M19.2306 3.14988C26.1517 3.06855 31.4396 5.93379 35.094 11.7456C38.2135 17.6556 38.1331 23.52 34.8531 29.3387C31.6431 34.2863 27.0782 37.0043 21.1583 37.4926C14.2348 37.6128 8.94705 34.761 5.29484 28.9371C2.17561 23.0241 2.25593 17.1597 5.53581 11.3439C8.76215 6.40227 13.3271 3.67091 19.2306 3.14988ZM14.331 9.49626C14.7255 9.46115 15.1003 9.52807 15.4555 9.69709C17.2225 10.7414 18.9896 11.7858 20.7567 12.8301C21.0001 13.0357 21.1742 13.2901 21.2788 13.5933C21.3323 14.477 21.3323 15.3606 21.2788 16.2443C20.549 16.6829 19.8128 17.1113 19.0699 17.5296C19.0031 16.7545 18.9629 15.9779 18.9495 15.2C18.8644 14.9495 18.7573 14.7085 18.6282 14.477C17.5777 13.7439 16.4934 13.0611 15.3752 12.4284C14.9286 12.2154 14.4734 12.1886 14.0097 12.3481C12.9388 12.964 11.8678 13.5799 10.7968 14.1958C10.6201 14.3753 10.4729 14.5761 10.3551 14.7983C10.2257 16.2133 10.1989 17.6325 10.2748 19.056C10.3529 19.3194 10.4734 19.5604 10.6362 19.779C11.707 20.5021 12.8047 21.1849 13.9294 21.8275C14.2969 21.9461 14.6718 21.9729 15.0539 21.9078C18.3041 20.0548 21.5437 18.1804 24.7727 16.2845C25.2535 15.983 25.7621 15.9026 26.2988 16.0435C28.273 17.1309 30.214 18.269 32.1221 19.4577C32.2495 19.632 32.3567 19.8195 32.4434 20.02C32.5738 22.2393 32.6006 24.4619 32.5237 26.6877C32.4702 27.1969 32.2426 27.612 31.841 27.9329C30.181 28.8969 28.5211 29.8609 26.8611 30.8249C26.2058 31.2668 25.5364 31.2936 24.8531 30.9052C23.1931 29.9412 21.5331 28.9772 19.8731 28.0132C19.5024 27.8029 19.248 27.495 19.1101 27.0894C19.0565 26.2325 19.0565 25.3756 19.1101 24.5187C19.8398 24.0801 20.576 23.6517 21.3189 23.2334C21.3858 23.9817 21.4259 24.7315 21.4394 25.4827C21.6003 26.1255 21.9885 26.5674 22.6041 26.8082C23.4609 27.2902 24.3176 27.7722 25.1743 28.2542C25.6667 28.427 26.1486 28.4003 26.6201 28.1739C27.456 27.6331 28.3127 27.1243 29.1904 26.6475C29.6223 26.4031 29.9034 26.0416 30.0338 25.563C30.1108 24.1117 30.0841 22.6657 29.9535 21.225C29.7991 20.9565 29.5983 20.7288 29.3511 20.5422C28.3033 19.9111 27.2324 19.322 26.1382 18.7748C25.6913 18.6937 25.2629 18.7473 24.8531 18.9355C21.6266 20.8302 18.387 22.7047 15.1342 24.5589C14.6943 24.7266 14.2658 24.6999 13.8491 24.4785C12.0684 23.4139 10.2745 22.3696 8.46753 21.3455C8.1289 21.0296 7.92809 20.6413 7.86512 20.1807C7.81155 18.1187 7.81155 16.0569 7.86512 13.995C7.92528 13.3788 8.23323 12.937 8.78882 12.6694C10.6438 11.6084 12.4912 10.5507 14.331 9.49626Z" fill="#CF169B"/>
</g>
<g id="Group_8">
<path id="Vector_8" opacity="0.886" fill-rule="evenodd" clip-rule="evenodd" d="M7.98564 4.43537C8.6768 4.39588 8.93118 4.71717 8.74869 5.39922C8.30033 5.88938 7.77825 6.2642 7.18242 6.52372C6.62381 6.41551 6.44979 6.09423 6.66034 5.55987C7.09388 5.16576 7.53564 4.79094 7.98564 4.43537Z" fill="#CF169B"/>
</g>
<g id="Group_9">
<path id="Vector_9" opacity="0.89" fill-rule="evenodd" clip-rule="evenodd" d="M33.0459 5.23853C33.2051 5.27832 33.3657 5.31848 33.5278 5.35901C33.916 5.74722 34.3043 6.13545 34.6924 6.52367C34.7893 7.32635 34.4546 7.5807 33.6884 7.28672C33.3537 6.95204 33.0191 6.61738 32.6844 6.2827C32.4513 5.79806 32.5718 5.45 33.0459 5.23853Z" fill="#CF169B"/>
</g>
<g id="Group_10">
<path id="Vector_10" opacity="0.884" fill-rule="evenodd" clip-rule="evenodd" d="M5.09407 7.24688C5.7126 7.23581 5.96695 7.53033 5.85712 8.13042C5.52244 8.57218 5.18778 9.01395 4.8531 9.45572C4.11598 9.65588 3.80808 9.37475 3.92941 8.61234C4.27902 8.11612 4.66725 7.661 5.09407 7.24688Z" fill="#CF169B"/>
</g>
<g id="Group_11">
<path id="Vector_11" opacity="0.89" fill-rule="evenodd" clip-rule="evenodd" d="M35.6161 8.29124C35.8055 8.27815 35.9928 8.29148 36.1784 8.3314C36.6626 8.81429 37.0106 9.37654 37.2226 10.0181C37.1279 10.601 36.8066 10.7617 36.2587 10.5001C35.9776 10.1119 35.6965 9.72361 35.4153 9.33542C35.2119 8.92184 35.2788 8.57381 35.6161 8.29124Z" fill="#CF169B"/>
</g>
<g id="Group_12">
<path id="Vector_12" opacity="0.886" fill-rule="evenodd" clip-rule="evenodd" d="M2.84506 10.6211C3.4594 10.6062 3.71376 10.9007 3.60812 11.5047C3.37781 12.0326 3.09669 12.5279 2.76474 12.9906C2.15222 13.1531 1.84433 12.9256 1.84105 12.3079C2.05665 11.6605 2.39132 11.0983 2.84506 10.6211Z" fill="#CF169B"/>
</g>
<g id="Group_13">
<path id="Vector_13" opacity="0.892" fill-rule="evenodd" clip-rule="evenodd" d="M37.6242 11.826C37.9537 11.7673 38.2349 11.8476 38.4675 12.0669C38.6921 12.5935 38.8929 13.129 39.07 13.6734C38.947 14.199 38.6257 14.373 38.1061 14.1954C37.9817 14.0979 37.888 13.9775 37.825 13.834C37.6392 13.3689 37.4651 12.9003 37.3029 12.4284C37.3385 12.1827 37.4456 11.9819 37.6242 11.826Z" fill="#CF169B"/>
</g>
<g id="Group_14">
<path id="Vector_14" opacity="0.894" fill-rule="evenodd" clip-rule="evenodd" d="M1.31896 14.3967C1.80329 14.3459 2.07103 14.5602 2.12217 15.0393C2.01437 15.5508 1.89389 16.0595 1.76073 16.5654C1.47273 17.0095 1.12466 17.063 0.716551 16.726C0.639595 16.5895 0.599435 16.4422 0.596069 16.2842C0.672254 15.752 0.792736 15.2299 0.957515 14.718C1.06971 14.5919 1.19019 14.4847 1.31896 14.3967Z" fill="#CF169B"/>
</g>
<g id="Group_15">
<path id="Vector_15" opacity="0.896" fill-rule="evenodd" clip-rule="evenodd" d="M38.9093 15.6821C39.0986 15.669 39.286 15.6823 39.4715 15.7223C39.6188 15.7624 39.7125 15.8562 39.7527 16.0034C39.868 16.5214 39.9617 17.0435 40.0338 17.5697C40.0498 17.8326 39.9427 18.02 39.7125 18.1319C39.4983 18.1855 39.2841 18.1855 39.0699 18.1319C38.9735 18.0594 38.9065 17.9657 38.8691 17.8508C38.7045 17.2432 38.6242 16.6274 38.6282 16.0034C38.6836 15.8548 38.7772 15.7477 38.9093 15.6821Z" fill="#CF169B"/>
</g>
<g id="Group_16">
<path id="Vector_16" opacity="0.906" fill-rule="evenodd" clip-rule="evenodd" d="M0.515743 18.4133C0.705044 18.4002 0.892466 18.4136 1.07799 18.4535C1.22524 18.4936 1.31896 18.5874 1.35912 18.7346C1.41267 19.3504 1.41267 19.9662 1.35912 20.582C1.02027 21.0833 0.64543 21.1101 0.234619 20.6623C0.181071 20.0465 0.181071 19.4307 0.234619 18.8149C0.314722 18.6685 0.408429 18.5346 0.515743 18.4133Z" fill="#CF169B"/>
</g>
<g id="Group_17">
<path id="Vector_17" opacity="0.911" fill-rule="evenodd" clip-rule="evenodd" d="M39.3109 19.6987C39.5002 19.6856 39.6876 19.699 39.8732 19.7389C40.0204 19.779 40.1141 19.8728 40.1543 20.02C40.2079 20.6358 40.2079 21.2516 40.1543 21.8674C39.9625 22.247 39.6545 22.3675 39.2306 22.2288C39.1637 22.1619 39.0967 22.0949 39.0298 22.028C38.9762 21.3855 38.9762 20.7429 39.0298 20.1003C39.1099 19.9539 39.2036 19.82 39.3109 19.6987Z" fill="#CF169B"/>
</g>
<g id="Group_18">
<path id="Vector_18" opacity="0.896" fill-rule="evenodd" clip-rule="evenodd" d="M0.837025 22.43C1.1529 22.4228 1.38047 22.5567 1.51976 22.8316C1.6843 23.4392 1.76462 24.0549 1.76072 24.679C1.38588 25.1073 1.01106 25.1073 0.636222 24.679C0.520881 24.161 0.427172 23.6389 0.355098 23.1127C0.351129 22.757 0.511773 22.5294 0.837025 22.43Z" fill="#CF169B"/>
</g>
<g id="Group_19">
<path id="Vector_19" opacity="0.892" fill-rule="evenodd" clip-rule="evenodd" d="M38.9093 23.7958C39.4368 23.6831 39.7312 23.8839 39.7928 24.3982C39.7344 25.0484 39.547 25.6508 39.2306 26.2054C38.6779 26.4248 38.3566 26.2507 38.2667 25.6833C38.3682 25.1571 38.4887 24.635 38.6282 24.117C38.6836 23.9685 38.7772 23.8613 38.9093 23.7958Z" fill="#CF169B"/>
</g>
<g id="Group_20">
<path id="Vector_20" opacity="0.883" fill-rule="evenodd" clip-rule="evenodd" d="M1.8009 26.3664C2.08406 26.3541 2.31164 26.4611 2.48363 26.6877C2.64886 27.1521 2.83627 27.6072 3.04588 28.0532C3.0624 28.7856 2.72772 29.0131 2.04186 28.7359C1.73061 28.1905 1.48964 27.615 1.31897 27.009C1.33507 26.6733 1.49571 26.459 1.8009 26.3664Z" fill="#CF169B"/>
</g>
<g id="Group_21">
<path id="Vector_21" opacity="0.886" fill-rule="evenodd" clip-rule="evenodd" d="M37.6242 27.6518C38.1675 27.5142 38.4888 27.715 38.588 28.2542C38.3715 28.9016 38.0502 29.4906 37.6242 30.0213C36.9682 30.115 36.6871 29.8339 36.7808 29.1779C37.0222 28.6412 37.3033 28.1325 37.6242 27.6518Z" fill="#CF169B"/>
</g>
<g id="Group_22">
<path id="Vector_22" opacity="0.888" fill-rule="evenodd" clip-rule="evenodd" d="M3.4073 30.0618C3.62315 30.0486 3.83734 30.062 4.04987 30.1019C4.35776 30.517 4.66567 30.9319 4.97356 31.3469C5.21509 32.1492 4.93396 32.4572 4.13019 32.2706C3.68605 31.7993 3.33798 31.2638 3.08601 30.6642C3.12567 30.4226 3.23277 30.2218 3.4073 30.0618Z" fill="#CF169B"/>
</g>
<g id="Group_23">
<path id="Vector_23" opacity="0.89" fill-rule="evenodd" clip-rule="evenodd" d="M35.6161 31.1864C36.3209 31.0746 36.602 31.3691 36.4595 32.0699C36.1553 32.5082 35.8206 32.9232 35.4555 33.3149C34.7181 33.582 34.4101 33.3276 34.5318 32.5519C34.8847 32.0797 35.2462 31.6246 35.6161 31.1864Z" fill="#CF169B"/>
</g>
<g id="Group_24">
<path id="Vector_24" opacity="0.894" fill-rule="evenodd" clip-rule="evenodd" d="M6.21855 33.1948C6.79193 33.4857 7.28724 33.8874 7.7045 34.3996C7.91751 35.2305 7.60964 35.5116 6.7808 35.243C6.41936 34.8816 6.05791 34.5201 5.69646 34.1587C5.52101 33.6287 5.69504 33.3074 6.21855 33.1948Z" fill="#CF169B"/>
</g>
<g id="Group_25">
<path id="Vector_25" opacity="0.884" fill-rule="evenodd" clip-rule="evenodd" d="M32.9655 34.1588C33.7127 34.1523 33.9403 34.5003 33.6482 35.203C33.2565 35.5681 32.8415 35.9028 32.4033 36.207C31.675 36.2823 31.4206 35.9744 31.6402 35.2833C32.0738 34.8891 32.5156 34.5144 32.9655 34.1588Z" fill="#CF169B"/>
</g>
<g id="Group_26">
<path id="Vector_26" opacity="0.886" fill-rule="evenodd" clip-rule="evenodd" d="M9.11013 35.8459C9.27294 35.8329 9.43358 35.8463 9.59205 35.886C9.98033 36.1472 10.3819 36.3882 10.7969 36.6089C11.2436 37.0236 11.2169 37.3984 10.7166 37.7334C10.5559 37.787 10.3953 37.787 10.2346 37.7334C9.83302 37.4925 9.43141 37.2515 9.02981 37.0105C8.6037 36.5878 8.63045 36.1996 9.11013 35.8459Z" fill="#CF169B"/>
</g>
<g id="Group_27">
<path id="Vector_27" opacity="0.885" fill-rule="evenodd" clip-rule="evenodd" d="M29.6724 36.5688C30.4665 36.5585 30.6941 36.9067 30.3551 37.613C29.9058 37.898 29.4373 38.1524 28.9495 38.3761C28.2488 38.433 27.9944 38.1251 28.1864 37.4524C28.6669 37.1254 29.1623 36.8309 29.6724 36.5688Z" fill="#CF169B"/>
</g>
<g id="Group_28">
<path id="Vector_28" opacity="0.891" fill-rule="evenodd" clip-rule="evenodd" d="M12.6442 37.7739C13.3132 37.8406 13.9558 38.0146 14.572 38.296C14.8345 38.5734 14.8747 38.8812 14.6924 39.2197C14.5572 39.3455 14.3965 39.4258 14.2105 39.4607C13.6502 39.2918 13.1014 39.091 12.5639 38.8583C12.227 38.4602 12.2538 38.0987 12.6442 37.7739Z" fill="#CF169B"/>
</g>
<g id="Group_29">
<path id="Vector_29" opacity="0.898" fill-rule="evenodd" clip-rule="evenodd" d="M26.0579 38.1755C26.6761 38.2183 26.9037 38.5396 26.7406 39.1394C26.6737 39.2063 26.6067 39.2733 26.5398 39.3402C25.9198 39.6024 25.2773 39.7363 24.6121 39.7418C24.2157 39.4239 24.1889 39.0759 24.5318 38.6976C25.0513 38.529 25.5601 38.355 26.0579 38.1755Z" fill="#CF169B"/>
</g>
<g id="Group_30">
<path id="Vector_30" opacity="0.908" fill-rule="evenodd" clip-rule="evenodd" d="M16.4997 38.8986C17.2113 38.8913 17.9074 38.9849 18.588 39.1797C18.7835 39.4782 18.797 39.7861 18.6282 40.1034C18.4614 40.2205 18.274 40.274 18.066 40.2641C17.5324 40.2224 17.0103 40.1286 16.4997 39.9829C16.1817 39.6216 16.1817 39.2601 16.4997 38.8986Z" fill="#CF169B"/>
</g>
<g id="Group_31">
<path id="Vector_31" opacity="0.906" fill-rule="evenodd" clip-rule="evenodd" d="M21.5599 39.0592C21.8823 39.0459 22.2036 39.0593 22.5238 39.0993C22.9705 39.514 22.9438 39.8888 22.4434 40.2238C21.831 40.334 21.2152 40.3609 20.596 40.3042C20.1554 39.8961 20.1822 39.5212 20.6764 39.1797C20.9861 39.1655 21.2806 39.1253 21.5599 39.0592Z" fill="#CF169B"/>
</g>
</g>
</svg>
