<svg width="50" height="50" viewBox="0 0 50 50" fill="none" xmlns="http://www.w3.org/2000/svg">
<path id="Twitter" opacity="0.994" fill-rule="evenodd" clip-rule="evenodd" d="M8.00781 0C19.3359 0 30.6641 0 41.9922 0C46.3867 0.944011 49.056 3.61328 50 8.00781C50 19.3359 50 30.6641 50 41.9922C49.056 46.3867 46.3867 49.056 41.9922 50C30.6641 50 19.3359 50 8.00781 50C3.61328 49.056 0.944011 46.3867 0 41.9922C0 30.6641 0 19.3359 0 8.00781C0.944011 3.61328 3.61328 0.944011 8.00781 0ZM41.4062 15.918C40.5662 17.1813 39.5245 18.2556 38.2812 19.1406C38.258 26.4305 35.3283 32.2084 29.4922 36.4746C24.5209 39.4847 19.2149 40.2659 13.5742 38.8184C11.852 38.3152 10.2243 37.5991 8.69141 36.6699C11.4847 36.8404 14.1214 36.2871 16.6016 35.0098C17.2902 34.662 17.9087 34.2226 18.457 33.6914C15.4323 33.4324 13.3489 31.9024 12.207 29.1016C12.8507 29.0949 13.5018 29.0787 14.1602 29.0527C14.4589 28.9897 14.7519 28.9084 15.0391 28.8086C12.1027 28.037 10.2635 26.1815 9.52148 23.2422C9.44089 22.8798 9.45717 22.5217 9.57031 22.168C10.5578 22.6551 11.5995 22.8992 12.6953 22.9004C10.3897 21.2283 9.42944 18.966 9.81445 16.1133C9.97773 15.3306 10.2381 14.5818 10.5957 13.8672C14.3262 18.2308 19.0625 20.542 24.8047 20.8008C24.2563 16.9405 25.7862 14.2875 29.3945 12.8418C32.0247 12.1181 34.3033 12.704 36.2305 14.5996C37.7555 14.4331 39.1878 13.9611 40.5273 13.1836C40.0962 14.7292 39.1522 15.9174 37.6953 16.748C38.9712 16.657 40.2082 16.3803 41.4062 15.918Z" fill="white"/>
</svg>
